<?xml version="1.0" standalone="no"?>
<!DOCTYPE svg PUBLIC "-//W3C//DTD SVG 20010904//EN"
 "http://www.w3.org/TR/2001/REC-SVG-20010904/DTD/svg10.dtd">
<svg version="1.0" xmlns="http://www.w3.org/2000/svg"
 width="1670.000000pt" height="870.000000pt" viewBox="0 0 1670.000000 870.000000"
 preserveAspectRatio="xMidYMid meet">

<g transform="translate(0.000000,870.000000) scale(0.100000,-0.100000)"
fill="#000000" stroke="none">
<path d="M0 4350 l0 -4350 8350 0 8350 0 0 4350 0 4350 -8350 0 -8350 0 0
-4350z m16670 3960 l0 -360 -7955 0 -7955 0 0 -3960 0 -3960 -365 0 -365 0 0
4320 0 4320 8320 0 8320 0 0 -360z m-14906 -392 c5 -10 7 -10 12 0 4 9 113 12
495 12 l489 0 0 -490 0 -490 -492 0 -493 0 3 475 c2 326 -1 475 -8 475 -7 0
-10 -157 -10 -497 0 -274 0 -713 0 -975 l0 -478 -490 0 -490 0 0 489 c0 382 3
491 13 495 10 5 10 7 0 12 -10 4 -13 113 -13 495 l0 489 489 0 c382 0 491 -3
495 -12z m2000 0 c5 -10 7 -10 12 0 4 9 113 12 495 12 l489 0 0 -490 0 -490
-492 0 -493 0 3 475 c2 326 -1 475 -8 475 -7 0 -10 -157 -10 -497 0 -274 0
-713 0 -975 l0 -478 -492 0 -493 0 3 487 c2 372 5 489 15 496 9 7 9 10 0 14
-10 4 -13 112 -13 494 l0 489 489 0 c382 0 491 -3 495 -12z m1996 -478 l0
-490 -460 0 c-300 0 -460 -3 -460 -10 0 -7 160 -10 460 -10 l460 0 0 -490 0
-490 -492 0 -493 0 3 487 c2 372 5 489 15 496 9 7 9 10 0 14 -10 4 -13 112
-13 494 l0 489 490 0 490 0 0 -490z m1004 478 c5 -10 7 -10 12 0 4 9 113 12
495 12 l489 0 0 -490 0 -490 -492 0 -493 0 3 475 c2 326 -1 475 -8 475 -7 0
-10 -157 -10 -497 0 -274 0 -713 0 -975 l0 -478 -492 0 -493 0 3 487 c2 372 5
489 15 496 9 7 9 10 0 14 -10 4 -13 112 -13 494 l0 489 489 0 c382 0 491 -3
495 -12z m2000 0 c5 -10 7 -10 12 0 4 9 113 12 495 12 l489 0 0 -490 0 -490
-492 0 -493 0 3 475 c2 326 -1 475 -8 475 -7 0 -10 -157 -10 -497 0 -274 0
-713 0 -975 l0 -478 -492 0 -493 0 3 487 c2 372 5 489 15 496 9 7 9 10 0 14
-10 4 -13 112 -13 494 l0 489 489 0 c382 0 491 -3 495 -12z m2000 0 c5 -10 7
-10 12 0 4 9 113 12 495 12 l489 0 0 -490 0 -490 -492 0 -493 0 3 475 c2 326
-1 475 -8 475 -7 0 -10 -157 -10 -497 0 -274 0 -713 0 -975 l0 -478 -492 0
-493 0 3 487 c2 372 5 489 15 496 9 7 9 10 0 14 -10 4 -13 112 -13 494 l0 489
489 0 c382 0 491 -3 495 -12z m2000 0 c5 -10 7 -10 12 0 4 9 113 12 495 12
l489 0 0 -490 0 -490 -492 0 -493 0 3 475 c2 326 -1 475 -8 475 -7 0 -10 -157
-10 -497 0 -274 0 -713 0 -975 l0 -478 -492 0 -493 0 3 487 c2 372 5 489 15
496 9 7 9 10 0 14 -10 4 -13 112 -13 494 l0 489 489 0 c382 0 491 -3 495 -12z
m2000 0 c5 -10 7 -10 12 0 4 9 113 12 495 12 l489 0 0 -490 0 -490 -492 0
-493 0 3 475 c2 326 -1 475 -8 475 -7 0 -10 -157 -10 -497 0 -274 0 -713 0
-975 l0 -478 -492 0 -493 0 3 487 c2 372 5 489 15 496 9 7 9 10 0 14 -10 4
-13 112 -13 494 l0 489 489 0 c382 0 491 -3 495 -12z m1906 -478 l0 -490 -415
0 c-270 0 -415 -3 -415 -10 0 -7 145 -10 415 -10 l415 0 0 -490 0 -490 -447 0
-448 0 3 487 c2 372 5 489 15 496 9 7 9 10 0 14 -10 4 -13 112 -13 494 l0 489
445 0 445 0 0 -490z m-13910 -1000 l0 -490 -490 0 -490 0 -2 490 -3 490 493 0
492 0 0 -490z m2000 0 l0 -490 -490 0 -490 0 -2 490 -3 490 493 0 492 0 0
-490z m3000 0 l0 -490 -490 0 -490 0 -2 490 -3 490 493 0 492 0 0 -490z m2000
0 l0 -490 -490 0 -490 0 -2 490 -3 490 493 0 492 0 0 -490z m2000 0 l0 -490
-490 0 -490 0 -2 490 -3 490 493 0 492 0 0 -490z m2000 0 l0 -490 -490 0 -490
0 -2 490 -3 490 493 0 492 0 0 -490z m2000 0 l0 -490 -490 0 -490 0 -2 490 -3
490 493 0 492 0 0 -490z m-13999 -985 c0 -261 1 -493 1 -515 0 -22 -1 -254 -1
-515 l-1 -475 -490 0 -490 0 0 489 c0 382 3 491 13 495 10 5 10 7 0 12 -10 4
-13 113 -13 495 l0 489 490 0 490 0 1 -475z m999 -15 l0 -490 -492 0 -493 0 3
490 2 490 490 0 490 0 0 -490z m1001 15 c0 -261 1 -493 1 -515 0 -22 -1 -254
-1 -515 l-1 -475 -492 0 -493 0 3 487 c2 372 5 489 15 495 9 6 9 10 0 16 -10
6 -13 123 -15 495 l-3 487 493 0 492 0 1 -475z m999 -15 l0 -490 -492 0 -493
0 3 490 2 490 490 0 490 0 0 -490z m1000 0 l0 -490 -460 0 c-300 0 -460 -3
-460 -10 0 -7 160 -10 460 -10 l460 0 0 -490 0 -490 -492 0 -493 0 3 487 c2
372 5 489 15 495 9 6 9 10 0 16 -10 6 -13 123 -15 495 l-3 487 493 0 492 0 0
-490z m1001 15 c0 -261 1 -493 1 -515 0 -22 -1 -254 -1 -515 l-1 -475 -492 0
-493 0 3 487 c2 372 5 489 15 495 9 6 9 10 0 16 -10 6 -13 123 -15 495 l-3
487 493 0 492 0 1 -475z m999 -15 l0 -490 -492 0 -493 0 3 490 2 490 490 0
490 0 0 -490z m1001 15 c0 -261 1 -493 1 -515 0 -22 -1 -254 -1 -515 l-1 -475
-492 0 -493 0 3 487 c2 372 5 489 15 495 9 6 9 10 0 16 -10 6 -13 123 -15 495
l-3 487 493 0 492 0 1 -475z m999 -15 l0 -490 -492 0 -493 0 3 490 2 490 490
0 490 0 0 -490z m1001 15 c0 -261 1 -493 1 -515 0 -22 -1 -254 -1 -515 l-1
-475 -492 0 -493 0 3 487 c2 372 5 489 15 495 9 6 9 10 0 16 -10 6 -13 123
-15 495 l-3 487 493 0 492 0 1 -475z m999 -15 l0 -490 -492 0 -493 0 3 490 2
490 490 0 490 0 0 -490z m1001 15 c0 -261 1 -493 1 -515 0 -22 -1 -254 -1
-515 l-1 -475 -492 0 -493 0 3 487 c2 372 5 489 15 495 9 6 9 10 0 16 -10 6
-13 123 -15 495 l-3 487 493 0 492 0 1 -475z m999 -15 l0 -490 -492 0 -493 0
3 490 2 490 490 0 490 0 0 -490z m1001 15 c0 -261 1 -493 1 -515 0 -22 -1
-254 -1 -515 l-1 -475 -492 0 -493 0 3 487 c2 372 5 489 15 495 9 6 9 10 0 16
-10 6 -13 123 -15 495 l-3 487 493 0 492 0 1 -475z m999 -15 l0 -490 -492 0
-493 0 3 490 2 490 490 0 490 0 0 -490z m910 0 l0 -490 -415 0 c-270 0 -415
-3 -415 -10 0 -7 145 -10 415 -10 l415 0 0 -490 0 -490 -447 0 -448 0 3 487
c2 372 5 489 15 495 9 6 9 10 0 16 -10 6 -13 123 -15 495 l-3 487 448 0 447 0
0 -490z m-13910 -1000 l0 -490 -490 0 -490 0 -2 490 -3 490 493 0 492 0 0
-490z m2000 0 l0 -490 -490 0 -490 0 -2 490 -3 490 493 0 492 0 0 -490z m3000
0 l0 -490 -490 0 -490 0 -2 490 -3 490 493 0 492 0 0 -490z m2000 0 l0 -490
-490 0 -490 0 -2 490 -3 490 493 0 492 0 0 -490z m2000 0 l0 -490 -490 0 -490
0 -2 490 -3 490 493 0 492 0 0 -490z m2000 0 l0 -490 -490 0 -490 0 -2 490 -3
490 493 0 492 0 0 -490z m2000 0 l0 -490 -490 0 -490 0 -2 490 -3 490 493 0
492 0 0 -490z m-13999 -985 c0 -261 1 -493 1 -515 0 -22 -1 -254 -1 -515 l-1
-475 -490 0 -490 0 0 489 c0 382 3 491 13 495 10 5 10 7 0 12 -10 4 -13 113
-13 495 l0 489 490 0 490 0 1 -475z m999 -15 l0 -490 -492 0 -493 0 3 490 2
490 490 0 490 0 0 -490z m1001 15 c0 -261 1 -493 1 -515 0 -22 -1 -254 -1
-515 l-1 -475 -492 0 -493 0 3 487 c2 372 5 489 15 495 9 6 9 10 0 16 -10 6
-13 123 -15 495 l-3 487 493 0 492 0 1 -475z m999 -15 l0 -490 -492 0 -493 0
3 490 2 490 490 0 490 0 0 -490z m1000 0 l0 -490 -460 0 c-300 0 -460 -3 -460
-10 0 -7 160 -10 460 -10 l460 0 0 -490 0 -490 -492 0 -493 0 3 487 c2 372 5
489 15 495 9 6 9 10 0 16 -10 6 -13 123 -15 495 l-3 487 493 0 492 0 0 -490z
m1001 15 c0 -261 1 -493 1 -515 0 -22 -1 -254 -1 -515 l-1 -475 -492 0 -493 0
3 487 c2 372 5 489 15 495 9 6 9 10 0 16 -10 6 -13 123 -15 495 l-3 487 493 0
492 0 1 -475z m999 -15 l0 -490 -492 0 -493 0 3 490 2 490 490 0 490 0 0 -490z
m1001 15 c0 -261 1 -493 1 -515 0 -22 -1 -254 -1 -515 l-1 -475 -492 0 -493 0
3 487 c2 372 5 489 15 495 9 6 9 10 0 16 -10 6 -13 123 -15 495 l-3 487 493 0
492 0 1 -475z m999 -15 l0 -490 -492 0 -493 0 3 490 2 490 490 0 490 0 0 -490z
m1001 15 c0 -261 1 -493 1 -515 0 -22 -1 -254 -1 -515 l-1 -475 -492 0 -493 0
3 487 c2 372 5 489 15 495 9 6 9 10 0 16 -10 6 -13 123 -15 495 l-3 487 493 0
492 0 1 -475z m999 -15 l0 -490 -492 0 -493 0 3 490 2 490 490 0 490 0 0 -490z
m1001 15 c0 -261 1 -493 1 -515 0 -22 -1 -254 -1 -515 l-1 -475 -492 0 -493 0
3 487 c2 372 5 489 15 495 9 6 9 10 0 16 -10 6 -13 123 -15 495 l-3 487 493 0
492 0 1 -475z m999 -15 l0 -490 -492 0 -493 0 3 490 2 490 490 0 490 0 0 -490z
m1001 15 c0 -261 1 -493 1 -515 0 -22 -1 -254 -1 -515 l-1 -475 -492 0 -493 0
3 487 c2 372 5 489 15 495 9 6 9 10 0 16 -10 6 -13 123 -15 495 l-3 487 493 0
492 0 1 -475z m999 -15 l0 -490 -492 0 -493 0 3 490 2 490 490 0 490 0 0 -490z
m910 0 l0 -490 -415 0 c-270 0 -415 -3 -415 -10 0 -7 145 -10 415 -10 l415 0
0 -490 0 -490 -447 0 -448 0 3 487 c2 372 5 489 15 495 9 6 9 10 0 16 -10 6
-13 123 -15 495 l-3 487 448 0 447 0 0 -490z m-13910 -1000 l0 -490 -490 0
-490 0 -2 490 -3 490 493 0 492 0 0 -490z m2000 0 l0 -490 -490 0 -490 0 -2
490 -3 490 493 0 492 0 0 -490z m3000 0 l0 -490 -490 0 -490 0 -2 490 -3 490
493 0 492 0 0 -490z m2000 0 l0 -490 -490 0 -490 0 -2 490 -3 490 493 0 492 0
0 -490z m2000 0 l0 -490 -490 0 -490 0 -2 490 -3 490 493 0 492 0 0 -490z
m2000 0 l0 -490 -490 0 -490 0 -2 490 -3 490 493 0 492 0 0 -490z m2000 0 l0
-490 -490 0 -490 0 -2 490 -3 490 493 0 492 0 0 -490z m-14000 -987 c0 -368 0
-1369 0 -1415 0 -5 -220 -8 -490 -8 l-490 0 0 449 c0 350 3 451 13 455 10 5
10 7 0 12 -10 4 -13 113 -13 495 l0 489 490 0 490 0 0 -477z m1000 -13 l0
-490 -492 0 -493 0 3 490 2 490 490 0 490 0 0 -490z m1000 13 c0 -368 0 -1369
0 -1415 0 -5 -220 -8 -490 -8 -385 0 -490 3 -490 13 0 6 0 208 0 447 0 332 3
436 13 442 9 6 9 10 0 16 -10 6 -13 123 -15 495 l-3 487 493 0 492 0 0 -477z
m1000 -13 l0 -490 -492 0 -493 0 3 490 2 490 490 0 490 0 0 -490z m1000 0 l0
-490 -460 0 c-300 0 -460 -3 -460 -10 0 -7 160 -10 460 -10 l460 0 0 -450 0
-450 -490 0 c-385 0 -490 3 -490 13 0 6 0 208 0 447 0 332 3 436 13 442 9 6 9
10 0 16 -10 6 -13 123 -15 495 l-3 487 493 0 492 0 0 -490z m1000 13 c0 -368
0 -1369 0 -1415 0 -5 -220 -8 -490 -8 -385 0 -490 3 -490 13 0 6 0 208 0 447
0 332 3 436 13 442 9 6 9 10 0 16 -10 6 -13 123 -15 495 l-3 487 493 0 492 0
0 -477z m1000 -13 l0 -490 -492 0 -493 0 3 490 2 490 490 0 490 0 0 -490z
m1000 13 c0 -368 0 -1369 0 -1415 0 -5 -220 -8 -490 -8 -385 0 -490 3 -490 13
0 6 0 208 0 447 0 332 3 436 13 442 9 6 9 10 0 16 -10 6 -13 123 -15 495 l-3
487 493 0 492 0 0 -477z m1000 -13 l0 -490 -492 0 -493 0 3 490 2 490 490 0
490 0 0 -490z m1000 13 c0 -368 0 -1369 0 -1415 0 -5 -220 -8 -490 -8 -385 0
-490 3 -490 13 0 6 0 208 0 447 0 332 3 436 13 442 9 6 9 10 0 16 -10 6 -13
123 -15 495 l-3 487 493 0 492 0 0 -477z m1000 -13 l0 -490 -492 0 -493 0 3
490 2 490 490 0 490 0 0 -490z m1000 13 c0 -368 0 -1369 0 -1415 0 -5 -220 -8
-490 -8 -385 0 -490 3 -490 13 0 6 0 208 0 447 0 332 3 436 13 442 9 6 9 10 0
16 -10 6 -13 123 -15 495 l-3 487 493 0 492 0 0 -477z m1000 -13 l0 -490 -492
0 -493 0 3 490 2 490 490 0 490 0 0 -490z m1000 13 c0 -368 0 -1369 0 -1415 0
-5 -220 -8 -490 -8 -385 0 -490 3 -490 13 0 6 0 208 0 447 0 332 3 436 13 442
9 6 9 10 0 16 -10 6 -13 123 -15 495 l-3 487 493 0 492 0 0 -477z m1000 -13
l0 -490 -492 0 -493 0 3 490 2 490 490 0 490 0 0 -490z m910 0 l0 -490 -415 0
c-270 0 -415 -3 -415 -10 0 -7 145 -10 415 -10 l415 0 0 -450 0 -450 -445 0
c-349 0 -445 3 -445 13 0 6 0 208 0 447 0 332 3 436 13 442 9 6 9 10 0 16 -10
6 -13 123 -15 495 l-3 487 448 0 447 0 0 -490z m-13910 -960 l0 -450 -490 0
-490 0 -2 450 -3 450 493 0 492 0 0 -450z m2000 0 l0 -450 -490 0 -490 0 -2
450 -3 450 493 0 492 0 0 -450z m3000 0 l0 -450 -490 0 -490 0 -2 450 -3 450
493 0 492 0 0 -450z m2000 0 l0 -450 -490 0 -490 0 -2 450 -3 450 493 0 492 0
0 -450z m2000 0 l0 -450 -490 0 -490 0 -2 450 -3 450 493 0 492 0 0 -450z
m2000 0 l0 -450 -490 0 -490 0 -2 450 -3 450 493 0 492 0 0 -450z m2000 0 l0
-450 -490 0 -490 0 -2 450 -3 450 493 0 492 0 0 -450z"/>
<path d="M2230 8387 c-27 -14 -55 -61 -45 -77 12 -19 42 -10 53 16 17 36 56
30 60 -9 3 -22 -9 -40 -64 -97 -46 -48 -64 -74 -57 -81 5 -5 46 -9 94 -7 78 3
84 4 87 26 3 20 -1 22 -44 22 l-48 0 26 28 c42 46 58 75 58 108 0 61 -65 100
-120 71z"/>
<path d="M8234 8388 c-34 -16 -47 -54 -31 -87 12 -25 12 -30 -5 -51 -41 -51 1
-120 73 -120 74 0 121 78 76 128 -11 12 -13 22 -7 32 18 29 11 68 -16 89 -29
23 -57 26 -90 9z m64 -66 c3 -18 -1 -22 -22 -22 -19 0 -26 5 -26 18 0 39 43
43 48 4z m3 -82 c6 0 9 -12 7 -27 -2 -20 -9 -29 -26 -31 -23 -3 -52 13 -52 29
0 16 33 40 47 35 8 -3 19 -6 24 -6z"/>
<path d="M10335 8389 c-31 -15 -46 -45 -52 -104 -10 -96 26 -155 94 -155 41 0
69 26 83 80 31 116 -41 220 -125 179z m63 -51 c7 -7 12 -39 12 -73 0 -63 -11
-85 -41 -85 -24 0 -43 61 -34 108 11 58 36 77 63 50z"/>
<path d="M12309 8371 c-34 -34 -39 -71 -10 -71 10 0 26 11 35 25 19 28 38 32
56 10 18 -22 4 -50 -61 -119 -32 -35 -59 -69 -59 -75 0 -7 30 -11 90 -11 89 0
90 0 90 25 0 23 -4 25 -47 25 l-47 0 36 38 c36 36 58 78 58 108 0 26 -56 74
-85 74 -16 0 -38 -12 -56 -29z"/>
<path d="M13343 8390 c-19 -8 -43 -38 -43 -54 0 -11 50 -6 70 6 15 10 22 10
31 1 14 -14 -4 -43 -27 -43 -8 0 -14 -10 -14 -24 0 -18 6 -26 21 -28 31 -4 46
-32 30 -52 -18 -22 -48 -20 -63 4 -17 27 -58 27 -58 0 0 -32 44 -70 80 -70 83
0 128 74 78 127 -20 21 -20 24 -5 41 22 24 21 44 0 71 -21 24 -68 35 -100 21z"/>
<path d="M14316 8318 c-31 -46 -56 -93 -56 -105 0 -20 6 -22 58 -25 54 -3 57
-4 60 -31 3 -23 8 -28 25 -25 16 2 23 11 25 31 2 15 8 27 13 27 5 0 9 9 9 20
0 11 -4 20 -10 20 -6 0 -10 35 -10 85 l0 85 -28 0 c-25 0 -37 -12 -86 -82z
m60 -74 c-3 -8 -17 -14 -31 -14 l-25 0 27 42 28 42 3 -28 c2 -15 1 -34 -2 -42z"/>
<path d="M16310 8320 c-47 -93 -50 -131 -15 -165 50 -51 135 -17 135 54 0 38
-31 81 -58 81 -16 0 -15 13 5 55 15 31 15 37 3 45 -8 6 -18 10 -22 10 -4 0
-26 -36 -48 -80z m65 -110 c0 -18 -6 -26 -23 -28 -24 -4 -38 18 -28 44 3 9 15
14 28 12 17 -2 23 -10 23 -28z"/>
<path d="M1222 8370 c-17 -27 -16 -30 13 -30 l25 0 0 -105 0 -105 25 0 25 0 0
130 0 130 -38 0 c-26 0 -41 -6 -50 -20z"/>
<path d="M3231 8364 c-11 -15 -21 -31 -21 -35 0 -13 37 -11 59 3 21 13 54 4
49 -15 -3 -6 -14 -16 -26 -22 -31 -14 -27 -37 8 -57 37 -21 38 -45 4 -60 -23
-11 -29 -10 -44 10 -20 24 -60 30 -60 9 0 -21 31 -58 57 -68 33 -12 88 5 108
34 20 29 19 60 -4 88 -17 21 -17 25 -2 50 15 26 14 30 -5 56 -31 41 -93 45
-123 7z"/>
<path d="M4191 8312 c-29 -45 -51 -90 -51 -105 0 -26 2 -27 55 -27 52 0 55 -1
55 -25 0 -20 5 -25 25 -25 20 0 25 5 25 24 0 13 7 26 15 30 8 3 15 12 15 21 0
9 -7 18 -15 21 -12 5 -15 24 -15 85 l0 79 -29 0 c-25 0 -35 -11 -80 -78z m56
-79 c-3 -2 -15 -3 -26 -1 -20 3 -20 3 2 38 l22 35 3 -33 c2 -19 1 -36 -1 -39z"/>
<path d="M5216 8378 c-10 -32 -26 -108 -26 -123 0 -13 9 -15 48 -13 44 3 47 1
50 -23 2 -15 -4 -31 -13 -39 -14 -11 -21 -11 -45 3 -32 19 -60 22 -60 6 0 -41
66 -78 111 -60 66 25 85 105 35 147 -15 13 -36 24 -47 24 -12 0 -19 7 -19 20
0 17 7 20 45 20 41 0 45 2 45 25 0 24 -3 25 -60 25 -40 0 -62 -4 -64 -12z"/>
<path d="M6232 8308 c-49 -95 -51 -119 -17 -153 28 -29 70 -32 103 -9 51 35
47 100 -7 132 l-29 16 20 40 c16 31 17 40 6 47 -25 17 -34 8 -76 -73z m63 -98
c0 -16 -6 -26 -19 -28 -25 -5 -39 12 -31 38 10 31 50 24 50 -10z"/>
<path d="M7200 8370 c0 -17 7 -20 50 -20 28 0 50 -2 50 -5 0 -3 -20 -46 -45
-95 -25 -49 -45 -92 -45 -94 0 -3 9 -10 20 -16 18 -10 25 0 80 110 33 66 60
124 60 130 0 6 -34 10 -85 10 -78 0 -85 -2 -85 -20z"/>
<path d="M9237 8378 c-47 -36 -39 -110 16 -136 l27 -13 -21 -41 c-17 -33 -18
-42 -7 -49 7 -5 18 -9 23 -9 13 0 95 164 95 191 0 32 -44 69 -83 69 -18 0 -41
-6 -50 -12z m80 -54 c3 -8 -1 -23 -10 -31 -21 -21 -47 -9 -47 22 0 20 5 25 25
25 14 0 28 -7 32 -16z"/>
<path d="M10102 8370 c-11 -18 -10 -20 13 -20 24 0 24 -1 27 -107 3 -103 4
-108 26 -111 22 -3 22 -3 22 127 l0 131 -38 0 c-26 0 -41 -6 -50 -20z"/>
<path d="M11110 8371 c-8 -17 -6 -20 13 -23 21 -3 22 -8 25 -111 3 -105 3
-108 25 -105 21 3 22 7 25 131 l3 127 -40 0 c-30 0 -43 -5 -51 -19z"/>
<path d="M11322 8370 c-11 -18 -10 -20 13 -20 24 0 24 -1 27 -107 3 -103 4
-108 26 -111 22 -3 22 -3 22 127 l0 131 -38 0 c-26 0 -41 -6 -50 -20z"/>
<path d="M12092 8370 c-11 -18 -10 -20 13 -20 24 0 24 -1 27 -107 3 -103 4
-108 26 -111 22 -3 22 -3 22 127 l0 131 -38 0 c-26 0 -41 -6 -50 -20z"/>
<path d="M13110 8371 c-8 -17 -6 -20 13 -23 21 -3 22 -8 25 -111 3 -105 3
-108 25 -105 21 3 22 7 25 131 l3 127 -40 0 c-30 0 -43 -5 -51 -19z"/>
<path d="M14090 8371 c-8 -17 -6 -20 13 -23 21 -3 22 -8 25 -111 3 -105 3
-108 25 -105 21 3 22 7 25 131 l3 127 -40 0 c-30 0 -43 -5 -51 -19z"/>
<path d="M15071 8371 c-15 -27 -14 -31 9 -31 19 0 20 -7 20 -105 l0 -105 30 0
31 0 -3 128 -3 127 -37 3 c-28 2 -39 -1 -47 -17z"/>
<path d="M15295 8378 c-2 -7 -11 -39 -19 -71 -16 -66 -14 -69 49 -65 36 3 40
1 43 -23 2 -15 -4 -32 -14 -39 -14 -12 -20 -12 -46 3 -39 22 -58 22 -58 -3 0
-26 45 -54 88 -54 73 0 110 97 57 149 -13 14 -35 25 -49 25 -19 0 -23 4 -19
20 4 16 14 20 49 20 40 0 44 2 44 25 0 24 -3 25 -60 25 -40 0 -62 -4 -65 -12z"/>
<path d="M16080 8371 c-14 -28 -13 -31 15 -31 l25 0 0 -105 0 -105 25 0 25 0
0 130 0 130 -40 0 c-29 0 -42 -5 -50 -19z"/>
<path d="M297 7511 c-26 -66 -47 -125 -47 -130 0 -6 11 -11 24 -11 18 0 27 8
35 30 9 28 13 30 60 30 46 0 52 -3 66 -30 14 -27 42 -39 57 -25 3 3 -16 61
-42 128 -45 115 -49 122 -77 125 -29 3 -30 1 -76 -117z m99 -28 c-2 -2 -15 -3
-29 -1 -25 3 -25 3 -10 38 l15 35 15 -34 c8 -18 12 -35 9 -38z"/>
<path d="M300 6431 l0 -131 60 0 c51 0 65 4 85 25 30 29 32 64 6 97 -13 16
-17 29 -10 39 30 48 -7 90 -86 97 l-55 4 0 -131z m95 54 c0 -13 -8 -21 -22
-23 -19 -3 -23 1 -23 23 0 22 4 26 23 23 14 -2 22 -10 22 -23z m14 -89 c18
-22 2 -46 -30 -46 -26 0 -29 4 -29 30 0 25 4 30 24 30 13 0 29 -6 35 -14z"/>
<path d="M331 5512 c-133 -67 -86 -252 64 -252 39 0 105 31 105 49 0 5 -7 14
-15 21 -11 9 -19 8 -37 -4 -27 -19 -86 -20 -110 -2 -24 18 -39 63 -32 92 8 31
50 64 81 64 13 0 38 -7 54 -16 24 -12 34 -13 45 -3 23 19 17 29 -28 49 -53 24
-83 25 -127 2z"/>
<path d="M272 4454 l3 -129 69 2 c83 2 115 21 134 80 17 52 3 109 -34 143 -21
21 -38 25 -100 28 l-75 4 3 -128z m138 56 c23 -23 27 -86 7 -113 -6 -10 -29
-20 -50 -24 l-37 -6 0 82 0 81 30 0 c17 0 39 -9 50 -20z"/>
<path d="M290 3430 l0 -130 70 0 c68 0 70 1 70 25 0 23 -4 25 -45 25 -45 0
-45 0 -45 35 0 35 0 35 45 35 41 0 45 2 45 25 0 23 -4 25 -45 25 -38 0 -45 3
-45 20 0 17 7 20 45 20 41 0 45 2 45 25 0 24 -2 25 -70 25 l-70 0 0 -130z"/>
<path d="M312 2433 c3 -124 4 -128 26 -131 21 -3 22 0 22 57 l0 61 40 0 c36 0
40 3 40 25 0 23 -4 25 -40 25 -33 0 -40 3 -40 20 0 17 7 20 40 20 36 0 40 3
40 25 0 24 -2 25 -65 25 l-66 0 3 -127z"/>
<path d="M325 1576 c-48 -22 -77 -60 -82 -108 -8 -83 55 -148 146 -148 37 0
49 6 82 39 29 28 39 47 39 70 l0 31 -65 0 c-63 0 -65 -1 -65 -25 0 -22 4 -25
35 -25 39 0 46 -14 16 -30 -37 -19 -81 -12 -112 19 -38 38 -38 74 0 112 33 33
67 37 112 13 24 -12 34 -13 45 -3 20 16 18 24 -11 43 -35 23 -104 29 -140 12z"/>
<path d="M280 460 l0 -130 25 0 c24 0 25 3 25 60 l0 60 45 0 45 0 0 -60 c0
-57 1 -60 25 -60 l25 0 0 130 0 130 -25 0 c-23 0 -25 -4 -25 -45 l0 -45 -45 0
-45 0 0 45 c0 41 -2 45 -25 45 l-25 0 0 -130z"/>
<path d="M810 6940 c0 -5 5 -10 10 -10 6 0 10 5 10 10 0 6 -4 10 -10 10 -5 0
-10 -4 -10 -10z"/>
<path d="M840 6940 c0 -7 155 -10 445 -10 290 0 445 3 445 10 0 7 -155 10
-445 10 -290 0 -445 -3 -445 -10z"/>
<path d="M2810 6940 c0 -5 5 -10 10 -10 6 0 10 5 10 10 0 6 -4 10 -10 10 -5 0
-10 -4 -10 -10z"/>
<path d="M2840 6940 c0 -7 155 -10 445 -10 290 0 445 3 445 10 0 7 -155 10
-445 10 -290 0 -445 -3 -445 -10z"/>
<path d="M4810 6940 c0 -5 5 -10 10 -10 6 0 10 5 10 10 0 6 -4 10 -10 10 -5 0
-10 -4 -10 -10z"/>
<path d="M5810 6940 c0 -5 5 -10 10 -10 6 0 10 5 10 10 0 6 -4 10 -10 10 -5 0
-10 -4 -10 -10z"/>
<path d="M5840 6940 c0 -7 155 -10 445 -10 290 0 445 3 445 10 0 7 -155 10
-445 10 -290 0 -445 -3 -445 -10z"/>
<path d="M7810 6940 c0 -5 5 -10 10 -10 6 0 10 5 10 10 0 6 -4 10 -10 10 -5 0
-10 -4 -10 -10z"/>
<path d="M7840 6940 c0 -7 155 -10 445 -10 290 0 445 3 445 10 0 7 -155 10
-445 10 -290 0 -445 -3 -445 -10z"/>
<path d="M9810 6940 c0 -5 5 -10 10 -10 6 0 10 5 10 10 0 6 -4 10 -10 10 -5 0
-10 -4 -10 -10z"/>
<path d="M9840 6940 c0 -7 155 -10 445 -10 290 0 445 3 445 10 0 7 -155 10
-445 10 -290 0 -445 -3 -445 -10z"/>
<path d="M11810 6940 c0 -5 5 -10 10 -10 6 0 10 5 10 10 0 6 -4 10 -10 10 -5
0 -10 -4 -10 -10z"/>
<path d="M11840 6940 c0 -7 155 -10 445 -10 290 0 445 3 445 10 0 7 -155 10
-445 10 -290 0 -445 -3 -445 -10z"/>
<path d="M13810 6940 c0 -5 5 -10 10 -10 6 0 10 5 10 10 0 6 -4 10 -10 10 -5
0 -10 -4 -10 -10z"/>
<path d="M13840 6940 c0 -7 155 -10 445 -10 290 0 445 3 445 10 0 7 -155 10
-445 10 -290 0 -445 -3 -445 -10z"/>
<path d="M15810 6940 c0 -5 5 -10 10 -10 6 0 10 5 10 10 0 6 -4 10 -10 10 -5
0 -10 -4 -10 -10z"/>
<path d="M810 4940 c0 -5 5 -10 10 -10 6 0 10 5 10 10 0 6 -4 10 -10 10 -5 0
-10 -4 -10 -10z"/>
<path d="M840 4940 c0 -7 155 -10 445 -10 290 0 445 3 445 10 0 7 -155 10
-445 10 -290 0 -445 -3 -445 -10z"/>
<path d="M2810 4940 c0 -5 5 -10 10 -10 6 0 10 5 10 10 0 6 -4 10 -10 10 -5 0
-10 -4 -10 -10z"/>
<path d="M2840 4940 c0 -7 155 -10 445 -10 290 0 445 3 445 10 0 7 -155 10
-445 10 -290 0 -445 -3 -445 -10z"/>
<path d="M4810 4940 c0 -5 5 -10 10 -10 6 0 10 5 10 10 0 6 -4 10 -10 10 -5 0
-10 -4 -10 -10z"/>
<path d="M5810 4940 c0 -5 5 -10 10 -10 6 0 10 5 10 10 0 6 -4 10 -10 10 -5 0
-10 -4 -10 -10z"/>
<path d="M5840 4940 c0 -7 155 -10 445 -10 290 0 445 3 445 10 0 7 -155 10
-445 10 -290 0 -445 -3 -445 -10z"/>
<path d="M7810 4940 c0 -5 5 -10 10 -10 6 0 10 5 10 10 0 6 -4 10 -10 10 -5 0
-10 -4 -10 -10z"/>
<path d="M7840 4940 c0 -7 155 -10 445 -10 290 0 445 3 445 10 0 7 -155 10
-445 10 -290 0 -445 -3 -445 -10z"/>
<path d="M9810 4940 c0 -5 5 -10 10 -10 6 0 10 5 10 10 0 6 -4 10 -10 10 -5 0
-10 -4 -10 -10z"/>
<path d="M9840 4940 c0 -7 155 -10 445 -10 290 0 445 3 445 10 0 7 -155 10
-445 10 -290 0 -445 -3 -445 -10z"/>
<path d="M11810 4940 c0 -5 5 -10 10 -10 6 0 10 5 10 10 0 6 -4 10 -10 10 -5
0 -10 -4 -10 -10z"/>
<path d="M11840 4940 c0 -7 155 -10 445 -10 290 0 445 3 445 10 0 7 -155 10
-445 10 -290 0 -445 -3 -445 -10z"/>
<path d="M13810 4940 c0 -5 5 -10 10 -10 6 0 10 5 10 10 0 6 -4 10 -10 10 -5
0 -10 -4 -10 -10z"/>
<path d="M13840 4940 c0 -7 155 -10 445 -10 290 0 445 3 445 10 0 7 -155 10
-445 10 -290 0 -445 -3 -445 -10z"/>
<path d="M15810 4940 c0 -5 5 -10 10 -10 6 0 10 5 10 10 0 6 -4 10 -10 10 -5
0 -10 -4 -10 -10z"/>
<path d="M810 2940 c0 -5 5 -10 10 -10 6 0 10 5 10 10 0 6 -4 10 -10 10 -5 0
-10 -4 -10 -10z"/>
<path d="M840 2940 c0 -7 155 -10 445 -10 290 0 445 3 445 10 0 7 -155 10
-445 10 -290 0 -445 -3 -445 -10z"/>
<path d="M2810 2940 c0 -5 5 -10 10 -10 6 0 10 5 10 10 0 6 -4 10 -10 10 -5 0
-10 -4 -10 -10z"/>
<path d="M2840 2940 c0 -7 155 -10 445 -10 290 0 445 3 445 10 0 7 -155 10
-445 10 -290 0 -445 -3 -445 -10z"/>
<path d="M4810 2940 c0 -5 5 -10 10 -10 6 0 10 5 10 10 0 6 -4 10 -10 10 -5 0
-10 -4 -10 -10z"/>
<path d="M5810 2940 c0 -5 5 -10 10 -10 6 0 10 5 10 10 0 6 -4 10 -10 10 -5 0
-10 -4 -10 -10z"/>
<path d="M5840 2940 c0 -7 155 -10 445 -10 290 0 445 3 445 10 0 7 -155 10
-445 10 -290 0 -445 -3 -445 -10z"/>
<path d="M7810 2940 c0 -5 5 -10 10 -10 6 0 10 5 10 10 0 6 -4 10 -10 10 -5 0
-10 -4 -10 -10z"/>
<path d="M7840 2940 c0 -7 155 -10 445 -10 290 0 445 3 445 10 0 7 -155 10
-445 10 -290 0 -445 -3 -445 -10z"/>
<path d="M9810 2940 c0 -5 5 -10 10 -10 6 0 10 5 10 10 0 6 -4 10 -10 10 -5 0
-10 -4 -10 -10z"/>
<path d="M9840 2940 c0 -7 155 -10 445 -10 290 0 445 3 445 10 0 7 -155 10
-445 10 -290 0 -445 -3 -445 -10z"/>
<path d="M11810 2940 c0 -5 5 -10 10 -10 6 0 10 5 10 10 0 6 -4 10 -10 10 -5
0 -10 -4 -10 -10z"/>
<path d="M11840 2940 c0 -7 155 -10 445 -10 290 0 445 3 445 10 0 7 -155 10
-445 10 -290 0 -445 -3 -445 -10z"/>
<path d="M13810 2940 c0 -5 5 -10 10 -10 6 0 10 5 10 10 0 6 -4 10 -10 10 -5
0 -10 -4 -10 -10z"/>
<path d="M13840 2940 c0 -7 155 -10 445 -10 290 0 445 3 445 10 0 7 -155 10
-445 10 -290 0 -445 -3 -445 -10z"/>
<path d="M15810 2940 c0 -5 5 -10 10 -10 6 0 10 5 10 10 0 6 -4 10 -10 10 -5
0 -10 -4 -10 -10z"/>
<path d="M810 940 c0 -5 5 -10 10 -10 6 0 10 5 10 10 0 6 -4 10 -10 10 -5 0
-10 -4 -10 -10z"/>
<path d="M840 940 c0 -7 155 -10 445 -10 290 0 445 3 445 10 0 7 -155 10 -445
10 -290 0 -445 -3 -445 -10z"/>
<path d="M2810 940 c0 -5 5 -10 10 -10 6 0 10 5 10 10 0 6 -4 10 -10 10 -5 0
-10 -4 -10 -10z"/>
<path d="M2840 940 c0 -7 155 -10 445 -10 290 0 445 3 445 10 0 7 -155 10
-445 10 -290 0 -445 -3 -445 -10z"/>
<path d="M4810 940 c0 -5 5 -10 10 -10 6 0 10 5 10 10 0 6 -4 10 -10 10 -5 0
-10 -4 -10 -10z"/>
<path d="M5810 940 c0 -5 5 -10 10 -10 6 0 10 5 10 10 0 6 -4 10 -10 10 -5 0
-10 -4 -10 -10z"/>
<path d="M5840 940 c0 -7 155 -10 445 -10 290 0 445 3 445 10 0 7 -155 10
-445 10 -290 0 -445 -3 -445 -10z"/>
<path d="M7810 940 c0 -5 5 -10 10 -10 6 0 10 5 10 10 0 6 -4 10 -10 10 -5 0
-10 -4 -10 -10z"/>
<path d="M7840 940 c0 -7 155 -10 445 -10 290 0 445 3 445 10 0 7 -155 10
-445 10 -290 0 -445 -3 -445 -10z"/>
<path d="M9810 940 c0 -5 5 -10 10 -10 6 0 10 5 10 10 0 6 -4 10 -10 10 -5 0
-10 -4 -10 -10z"/>
<path d="M9840 940 c0 -7 155 -10 445 -10 290 0 445 3 445 10 0 7 -155 10
-445 10 -290 0 -445 -3 -445 -10z"/>
<path d="M11810 940 c0 -5 5 -10 10 -10 6 0 10 5 10 10 0 6 -4 10 -10 10 -5 0
-10 -4 -10 -10z"/>
<path d="M11840 940 c0 -7 155 -10 445 -10 290 0 445 3 445 10 0 7 -155 10
-445 10 -290 0 -445 -3 -445 -10z"/>
<path d="M13810 940 c0 -5 5 -10 10 -10 6 0 10 5 10 10 0 6 -4 10 -10 10 -5 0
-10 -4 -10 -10z"/>
<path d="M13840 940 c0 -7 155 -10 445 -10 290 0 445 3 445 10 0 7 -155 10
-445 10 -290 0 -445 -3 -445 -10z"/>
<path d="M15810 940 c0 -5 5 -10 10 -10 6 0 10 5 10 10 0 6 -4 10 -10 10 -5 0
-10 -4 -10 -10z"/>
</g>
</svg>
