<?xml version="1.0" standalone="no"?>
<!DOCTYPE svg PUBLIC "-//W3C//DTD SVG 20010904//EN"
 "http://www.w3.org/TR/2001/REC-SVG-20010904/DTD/svg10.dtd">
<svg version="1.0" xmlns="http://www.w3.org/2000/svg"
 width="512.000000pt" height="512.000000pt" viewBox="0 0 512.000000 512.000000"
 preserveAspectRatio="xMidYMid meet">

<g transform="translate(0.000000,512.000000) scale(0.100000,-0.100000)"
fill="#000000" stroke="none">
<path d="M0 4800 l0 -320 215 0 215 0 0 105 0 105 105 0 105 0 0 215 0 215
-320 0 -320 0 0 -320z"/>
<path d="M1400 4905 l0 -215 390 0 390 0 0 215 0 215 -390 0 -390 0 0 -215z"/>
<path d="M2940 4905 l0 -215 390 0 390 0 0 215 0 215 -390 0 -390 0 0 -215z"/>
<path d="M4480 4905 l0 -215 105 0 105 0 0 -105 0 -105 215 0 215 0 0 320 0
320 -320 0 -320 0 0 -215z"/>
<path d="M2130 3625 l0 -215 482 0 483 0 -635 -635 -635 -635 -912 0 -913 0 0
-1070 0 -1070 1070 0 1070 0 0 913 0 912 635 635 635 635 0 -483 0 -482 215 0
215 0 0 855 0 855 -855 0 -855 0 0 -215z"/>
<path d="M4690 3330 l0 -390 215 0 215 0 0 390 0 390 -215 0 -215 0 0 -390z"/>
<path d="M0 3300 l0 -400 215 0 215 0 0 400 0 400 -215 0 -215 0 0 -400z"/>
<path d="M4690 1790 l0 -390 215 0 215 0 0 390 0 390 -215 0 -215 0 0 -390z"/>
<path d="M4690 535 l0 -105 -105 0 -105 0 0 -215 0 -215 320 0 320 0 0 320 0
320 -215 0 -215 0 0 -105z"/>
<path d="M2920 215 l0 -215 395 0 395 0 0 215 0 215 -395 0 -395 0 0 -215z"/>
</g>
</svg>
